<?xml version="1.0" encoding="utf-8"?>
<!-- Generator: Adobe Illustrator 27.2.0, SVG Export Plug-In . SVG Version: 6.00 Build 0)  -->
<svg version="1.1" xmlns="http://www.w3.org/2000/svg" xmlns:xlink="http://www.w3.org/1999/xlink" x="0px" y="0px"
	 viewBox="0 0 196.88 158.67" style="enable-background:new 0 0 196.88 158.67;" xml:space="preserve">
<style type="text/css">
	.st0{fill:#8C0B42;}
	.st1{fill:#FFCA38;}
</style>
<g id="Artwork">
	<g>
		<g>
			<path class="st0" d="M37.12,91.62l6.24,16.95h-4.51L38,105.85h-6.24l-0.84,2.71h-4.51l6.29-16.95H37.12z M34.84,95.65
				c-0.22,0.86-0.46,1.75-0.7,2.62c-0.36,1.27-1.01,3.26-1.39,4.54h4.3L34.84,95.65z"/>
			<path class="st0" d="M47.9,97.33c0.82-0.7,1.7-1.25,3.62-1.44v3.26l-1.22,0.19c-1.78,0.31-2.3,0.58-2.3,2.16v7.06h-3.7V96.01h3.6
				V97.33z"/>
			<path class="st0" d="M52.79,91.59h3.65v2.86h-3.65V91.59z M52.79,96.01h3.65v12.55h-3.65V96.01z"/>
			<path class="st0" d="M58.7,96.03h10.73v2.83l-6.67,6.82h6.67v2.88H57.98v-2.78l6.77-6.91H58.7V96.03z"/>
			<path class="st0" d="M83.56,102.27c0,3.17-1.82,6.65-6.72,6.65c-3.53,0-6.74-2.02-6.74-6.65c0-3.84,2.42-6.89,7.22-6.62
				C82.43,95.94,83.56,99.99,83.56,102.27z M74.44,99.8c-0.46,0.72-0.62,1.58-0.62,2.45c0,1.99,0.96,3.74,3.02,3.74
				c1.99,0,2.98-1.61,2.98-3.58c0-1.39-0.34-2.47-1.03-3.14c-0.77-0.72-1.63-0.74-2.16-0.7C75.57,98.65,74.94,99.01,74.44,99.8z"/>
			<path class="st0" d="M88.53,97.16c0.36-0.38,0.6-0.67,1.25-0.98c0.58-0.24,1.39-0.46,2.28-0.46c0.74,0,1.58,0.14,2.23,0.5
				c1.32,0.7,1.66,1.82,1.66,3.77v8.57h-3.67v-7.06c0-1.13-0.02-1.54-0.17-1.87c-0.29-0.67-0.94-0.96-1.66-0.96
				c-1.94,0-1.94,1.56-1.94,3.12v6.77h-3.7v-12.5h3.72V97.16z"/>
			<path class="st0" d="M97.77,99.59c0.07-0.86,0.19-1.9,1.32-2.79c1.15-0.91,2.64-1.1,4.1-1.1c1.54,0,5.26,0.36,5.26,3.6v7.3
				c0,1.34,0.07,1.54,0.36,1.97h-3.62v-1.15c-0.94,0.7-1.99,1.49-3.84,1.49c-2.88,0-4.1-2.06-4.1-3.82c0-2.02,1.61-3.17,2.64-3.6
				c1.01-0.43,3.38-0.86,4.94-1.15v-0.67c-0.05-0.58-0.1-1.54-1.42-1.54c-1.63,0-1.85,1.01-1.94,1.46H97.77z M102.45,103.35
				c-0.62,0.24-1.58,0.6-1.58,1.56c0,0.6,0.53,1.27,1.39,1.27c0.46,0,0.89-0.17,1.27-0.41c1.22-0.77,1.27-1.92,1.3-3.22
				L102.45,103.35z"/>
			<path class="st0" d="M116.63,103.47c0.43,0.48,0.79,0.86,1.63,1.32c1.13,0.6,2.28,0.82,3.26,0.82c1.68,0,3.12-0.79,3.12-1.97
				c0-1.34-1.7-1.56-2.95-1.73c-0.94-0.12-1.87-0.24-2.78-0.43c-1.03-0.22-4.56-0.96-4.56-4.61c0-4.37,3.89-5.66,6.82-5.66
				c3.91,0,6.02,1.9,7.49,3.22l-3.12,2.23c-0.53-0.53-1.01-0.98-1.68-1.37c-0.6-0.34-1.68-0.74-2.76-0.74
				c-1.68,0-2.52,0.96-2.52,1.78c0,1.3,1.44,1.49,2.16,1.58c1.8,0.22,4.22,0.67,5.18,1.01c1.94,0.72,2.93,2.23,2.93,4.15
				c0,1.22-0.46,2.57-1.34,3.6c-1.54,1.78-3.98,2.28-6.36,2.28c-4.78,0-6.67-2.21-7.73-3.43L116.63,103.47z"/>
			<path class="st0" d="M130.67,92.41h3.67v3.91h2.42v2.26h-2.45v5.64c-0.02,0.77-0.02,1.42,0.96,1.42l1.32-0.05v2.88
				c-0.79,0.12-1.27,0.19-1.94,0.19c-1.27,0-2.66-0.07-3.46-1.22c-0.5-0.74-0.53-1.63-0.53-2.83v-6.05h-1.82V96.3h1.82V92.41z"/>
			<path class="st0" d="M137.89,99.59c0.07-0.86,0.19-1.9,1.32-2.79c1.15-0.91,2.64-1.1,4.1-1.1c1.54,0,5.26,0.36,5.26,3.6v7.3
				c0,1.34,0.07,1.54,0.36,1.97h-3.62v-1.15c-0.94,0.7-1.99,1.49-3.84,1.49c-2.88,0-4.1-2.06-4.1-3.82c0-2.02,1.61-3.17,2.64-3.6
				c1.01-0.43,3.38-0.86,4.94-1.15v-0.67c-0.05-0.58-0.1-1.54-1.42-1.54c-1.63,0-1.85,1.01-1.94,1.46H137.89z M142.58,103.35
				c-0.62,0.24-1.58,0.6-1.58,1.56c0,0.6,0.53,1.27,1.39,1.27c0.46,0,0.89-0.17,1.27-0.41c1.22-0.77,1.27-1.92,1.3-3.22
				L142.58,103.35z"/>
			<path class="st0" d="M151.14,92.41h3.67v3.91h2.42v2.26h-2.45v5.64c-0.02,0.77-0.02,1.42,0.96,1.42l1.32-0.05v2.88
				c-0.79,0.12-1.27,0.19-1.94,0.19c-1.27,0-2.66-0.07-3.46-1.22c-0.5-0.74-0.53-1.63-0.53-2.83v-6.05h-1.82V96.3h1.82V92.41z"/>
			<path class="st0" d="M170.29,105.37c-0.43,0.65-0.86,1.27-1.51,1.87c-1.08,1.01-2.71,1.78-4.73,1.78c-3.72,0-6.34-2.38-6.34-6.48
				c0-3.02,1.49-6.91,6.43-6.91c0.74,0,2.9,0.07,4.51,1.8c1.63,1.75,1.73,4.2,1.78,5.62h-8.95c-0.02,1.56,0.86,3.12,2.86,3.12
				c2.02,0,2.71-1.32,3.17-2.21L170.29,105.37z M166.62,100.74c-0.07-0.53-0.17-1.22-0.7-1.78c-0.46-0.46-1.15-0.7-1.8-0.7
				c-0.89,0-1.51,0.43-1.87,0.82c-0.5,0.55-0.62,1.13-0.74,1.66H166.62z"/>
		</g>
		<g>
			<path class="st0" d="M40.9,115.62v9.46c-0.02,1.63-0.05,3.26-0.98,4.8c-1.82,2.93-5.59,3.07-6.31,3.07
				c-1.27,0-2.78-0.31-3.94-0.91c-3.26-1.68-3.26-4.66-3.24-6.96v-9.46h4.27v10.56c0,0.86,0.02,1.58,0.31,2.11
				c0.53,0.89,1.68,1.15,2.74,1.15c2.88,0,2.88-1.97,2.9-3.29v-10.54H40.9z"/>
			<path class="st0" d="M46.54,121.16c0.36-0.38,0.6-0.67,1.25-0.98c0.58-0.24,1.39-0.46,2.28-0.46c0.74,0,1.58,0.14,2.23,0.5
				c1.32,0.7,1.66,1.82,1.66,3.77v8.57h-3.67v-7.06c0-1.13-0.02-1.54-0.17-1.87c-0.29-0.67-0.94-0.96-1.66-0.96
				c-1.94,0-1.94,1.56-1.94,3.12v6.77h-3.7v-12.5h3.72V121.16z"/>
			<path class="st0" d="M55.88,115.59h3.65v2.86h-3.65V115.59z M55.88,120.01h3.65v12.55h-3.65V120.01z"/>
			<path class="st0" d="M60.61,120.03h3.89c1.54,5.57,1.8,6.72,2.21,9.12c0.5-2.78,0.58-3.1,1.32-6.05l0.77-3.07h3.79l-4.06,12.53
				h-3.86L60.61,120.03z"/>
			<path class="st0" d="M85.11,129.37c-0.43,0.65-0.86,1.27-1.51,1.87c-1.08,1.01-2.71,1.78-4.73,1.78c-3.72,0-6.34-2.38-6.34-6.48
				c0-3.02,1.49-6.91,6.43-6.91c0.74,0,2.9,0.07,4.51,1.8c1.63,1.75,1.73,4.2,1.78,5.62H76.3c-0.02,1.56,0.86,3.12,2.86,3.12
				c2.02,0,2.71-1.32,3.17-2.21L85.11,129.37z M81.44,124.74c-0.07-0.53-0.17-1.22-0.7-1.78c-0.46-0.46-1.15-0.7-1.8-0.7
				c-0.89,0-1.51,0.43-1.87,0.82c-0.5,0.55-0.62,1.13-0.74,1.66H81.44z"/>
			<path class="st0" d="M90.34,121.33c0.82-0.7,1.7-1.25,3.62-1.44v3.26l-1.22,0.19c-1.78,0.31-2.3,0.58-2.3,2.16v7.06h-3.7v-12.55
				h3.6V121.33z"/>
			<path class="st0" d="M96.2,128.34c1.01,0.98,2.26,1.73,3.65,1.73c0.89,0,2.23-0.29,2.23-1.22c0-0.43-0.26-0.6-0.48-0.72
				c-0.55-0.29-1.42-0.36-2.14-0.48c-0.55-0.1-1.13-0.22-1.68-0.38c-0.77-0.22-1.54-0.53-2.09-1.08c-0.55-0.55-0.94-1.42-0.94-2.35
				c0-2.06,1.78-4.2,5.28-4.2c2.95,0,4.73,1.27,5.59,1.87l-2.28,2.11c-1.18-0.91-2.28-1.25-3.14-1.25c-1.44,0-1.78,0.58-1.78,0.94
				c0,0.72,0.79,0.86,1.99,1.08c2.52,0.46,5.45,1.13,5.45,4.1c0,2.95-2.98,4.39-5.93,4.39c-3.48,0-5.28-1.68-6.07-2.42L96.2,128.34z
				"/>
			<path class="st0" d="M107.02,115.59h3.65v2.86h-3.65V115.59z M107.02,120.01h3.65v12.55h-3.65V120.01z"/>
			<path class="st0" d="M113.79,116.41h3.67v3.91h2.42v2.26h-2.45v5.64c-0.02,0.77-0.02,1.42,0.96,1.42l1.32-0.05v2.88
				c-0.79,0.12-1.27,0.19-1.94,0.19c-1.27,0-2.66-0.07-3.46-1.22c-0.5-0.74-0.53-1.63-0.53-2.83v-6.05h-1.82v-2.26h1.82V116.41z"/>
			<path class="st0" d="M132.75,120.03l-4.42,13.54c-0.29,0.82-0.55,1.58-1.18,2.28c-0.86,0.94-1.7,0.98-2.66,1.01h-2.66v-2.93h1.3
				c0.6-0.02,1.54-0.02,1.54-0.91c0-0.31-0.1-0.62-0.17-0.89l-3.74-12.1h3.94l2.06,8.98l2.06-8.98H132.75z"/>
		</g>
	</g>
	<g>
		<path class="st0" d="M150.04,78.58c0,0-0.86-0.96-2.3-2.51c-1.77-1.91-1.68-3.93-1.68-3.93V26.43l-17.3,0V63
			c-0.21,3.46-3.6,4.34-5.46,4.28c-2.68-0.08-4.24-1.6-4.24-4.18l0-36.67l-16.85,0c0,0-7.03,0.01-11.87,0.01
			c-9.22,0-17.93,1.42-20.87,9.1l-1.74-6.8c-0.43-1.35-1.88-2.31-3.32-2.31l-30.12,0c-0.44,0-0.6,0.14-0.38,0.45
			c0,0,0.82,0.78,2.3,2.48c2.06,2.35,1.26,5.5,1.26,5.5L26.43,79.02h16.06l2.31-9.69h15.5l2.41,9.69c0,0,19.77,0,21.14,0
			c8.68,0,15.74-0.88,19.22-6.3c2.6,4.94,8.2,7.26,18.09,6.41c3.44-0.29,6.81-1.9,8.26-4.47l0.68,2.13
			c0.57,1.29,1.75,2.24,3.43,2.24h16.15C150.12,79.02,150.26,78.89,150.04,78.58z M47.2,59.75l5.35-21.59l5.37,21.59H47.2z"/>
		<path class="st0" d="M150.55,30.5c-1.07,0-1.94-0.85-1.94-1.94c0-1.07,0.85-1.94,1.95-1.94c1.11,0,1.94,0.89,1.94,1.95
			C152.48,29.65,151.65,30.5,150.55,30.5z M150.54,26.36c-1.19,0-2.19,0.93-2.19,2.2c0,1.3,1.05,2.2,2.19,2.2
			c1.24,0,2.2-0.97,2.2-2.19C152.75,27.37,151.82,26.36,150.54,26.36z M149.73,27.32l0.78,0c0.32,0,0.54,0,0.76,0.18
			c0.15,0.12,0.27,0.32,0.27,0.6c0,0.47-0.34,0.63-0.48,0.67l0.54,0.99h-0.52l-0.48-0.91h-0.41v0.91h-0.45V27.32z M150.19,27.71
			v0.76h0.16c0.16,0,0.21,0,0.3-0.01c0.1,0,0.43-0.02,0.43-0.38c0-0.05,0-0.23-0.19-0.33c-0.1-0.05-0.21-0.05-0.48-0.05H150.19z"/>
		<g>
			<path class="st1" d="M69.03,37.61c-0.09,0.47-0.21,1.11-0.28,1.56l-3.01-2.8c-0.29-0.27,0.06-0.73,0.4-0.52L69.03,37.61z"/>
			<path class="st1" d="M68.6,41.73c0,0.65,0.03,1.52,0.1,2.19l-5.83-3.8c-0.33-0.21-0.07-0.72,0.3-0.57L68.6,41.73z"/>
			<path class="st1" d="M69.95,48.26c-0.41-0.79-0.78-1.85-0.99-2.81l-8-1.8c-0.37-0.08-0.55,0.45-0.2,0.6L69.95,48.26z"/>
			<path class="st1" d="M70.2,48.71c2.71,4.95,8.42,6.92,13.43,8.66c4.88,1.68,9.08,3.13,9.08,6.9c0,1-0.4,1.89-1.21,2.62
				c-1.55,1.41-4.37,2.09-7.48,1.8c-1.75-0.17-3.6-1.07-3.6-1.07l-6.48,8.03c-0.26,0.32-0.76,0-0.57-0.37l4.44-8.93
				c0.05-0.11-0.08-0.21-0.17-0.13l-7.88,6.86c-0.31,0.27-0.73-0.13-0.49-0.46l6.11-8.11c0.07-0.09-0.04-0.2-0.13-0.15l-9.13,5.55
				c-0.34,0.21-0.68-0.25-0.39-0.52l7.62-7.07c0.08-0.07,0-0.19-0.1-0.16l-10.08,4.05c-0.36,0.15-0.62-0.36-0.3-0.57l8.87-5.78
				c0.09-0.06,0.03-0.19-0.07-0.17l-10.71,2.41c-0.37,0.08-0.55-0.45-0.2-0.6l9.91-4.33c0.09-0.04,0.06-0.17-0.04-0.17l-11.02,0.71
				c-0.38,0.02-0.47-0.53-0.1-0.62l10.59-2.72c0.09-0.02,0.08-0.16-0.01-0.17l-10.99-1.02c-0.38-0.04-0.38-0.59,0-0.62l11.02-1.03
				c0.09-0.01,0.1-0.14,0.01-0.16l-10.62-2.72c-0.37-0.1-0.28-0.64,0.1-0.62L70.2,48.71z"/>
			<path class="st1" d="M104.09,70.91c0,0,0.36-0.89,0.55-1.51l2.43,3.23c0.24,0.32-0.18,0.72-0.49,0.45L104.09,70.91z"/>
			<path class="st1" d="M105.21,66.87c0,0,0.2-1.47,0.24-2.27l5.16,4.79c0.29,0.27-0.06,0.73-0.39,0.52L105.21,66.87z"/>
			<path class="st1" d="M105.5,63.13c0,0,0.02-1.79-0.18-2.79l8.13,5.3c0.33,0.21,0.07,0.72-0.3,0.57L105.5,63.13z"/>
			<path class="st1" d="M105.23,59.82L105.23,59.82c0,0-0.41-4.54-5.66-8.16c-2.74-1.89-6.09-3.16-9.03-4.28
				c-2.26-0.85-4.39-1.67-5.93-2.63c-1.72-1.09-2.52-2.26-2.52-3.68c0-1.04,0.34-1.91,1.03-2.58c1.18-1.16,3.33-1.68,6.24-1.66
				c3.12,0.02,6.43,1.43,6.43,1.43l6.6-8.16c0.26-0.32,0.76,0,0.57,0.37l-4.49,9.03c-0.04,0.08,0.06,0.17,0.13,0.1l7.97-6.94
				c0.3-0.26,0.73,0.13,0.49,0.45l-6.16,8.19c-0.06,0.08,0.03,0.18,0.11,0.13l9.17-5.57c0.34-0.21,0.69,0.25,0.4,0.53l-7.63,7.08
				c-0.07,0.07,0,0.18,0.09,0.14l10.11-4.06c0.36-0.15,0.63,0.36,0.3,0.57l-8.9,5.79c-0.08,0.05-0.03,0.18,0.07,0.16l10.75-2.42
				c0.37-0.08,0.55,0.45,0.2,0.6l-9.91,4.33c-0.09,0.04-0.06,0.17,0.04,0.17l11.01-0.71c0.38-0.02,0.47,0.53,0.1,0.62l-10.58,2.71
				c-0.09,0.02-0.08,0.16,0.01,0.17l10.98,1.02c0.38,0.04,0.38,0.59,0,0.63l-10.98,1.02c-0.1,0.01-0.11,0.15-0.01,0.17l10.58,2.71
				c0.37,0.1,0.28,0.65-0.1,0.62l-11.01-0.71c-0.1-0.01-0.13,0.13-0.04,0.17l9.91,4.33c0.35,0.15,0.18,0.68-0.2,0.6L105.23,59.82z"
				/>
		</g>
	</g>
</g>
<g id="Guides">
</g>
</svg>
